<svg width="32" height="32" viewBox="0 0 32 32" fill="none" xmlns="http://www.w3.org/2000/svg">
<path d="M3.25 25.75V9.25H27.25V14.185C28.33 14.515 29.35 14.995 30.25 15.64V9.25C30.25 7.585 28.915 6.25 27.25 6.25H21.25V3.25C21.25 1.585 19.915 0.25 18.25 0.25H12.25C10.585 0.25 9.25 1.585 9.25 3.25V6.25H3.25C1.585 6.25 0.265 7.585 0.265 9.25L0.25 25.75C0.25 27.415 1.585 28.75 3.25 28.75H14.77C14.32 27.82 14.02 26.815 13.87 25.75H3.25ZM12.25 3.25H18.25V6.25H12.25V3.25Z" fill="#C09600"/>
<path d="M24.25 16.75C20.11 16.75 16.75 20.11 16.75 24.25C16.75 28.39 20.11 31.75 24.25 31.75C28.39 31.75 31.75 28.39 31.75 24.25C31.75 20.11 28.39 16.75 24.25 16.75ZM26.725 27.775L23.5 24.55V19.75H25V23.935L27.775 26.71L26.725 27.775Z" fill="#C09600"/>
</svg>
