<svg width="28" height="30" viewBox="0 0 28 30" fill="none" xmlns="http://www.w3.org/2000/svg">
<path d="M12.5 21H15.5V24H12.5V21ZM12.5 9H15.5V18H12.5V9ZM24.5 3H18.23C17.6 1.26 15.95 0 14 0C12.05 0 10.4 1.26 9.77 3H3.5C3.29 3 3.095 3.015 2.9 3.06C2.315 3.18 1.79 3.48 1.385 3.885C1.115 4.155 0.89 4.485 0.74 4.845C0.59 5.19 0.5 5.58 0.5 6V27C0.5 27.405 0.59 27.81 0.74 28.17C0.89 28.53 1.115 28.845 1.385 29.13C1.79 29.535 2.315 29.835 2.9 29.955C3.095 29.985 3.29 30 3.5 30H24.5C26.15 30 27.5 28.65 27.5 27V6C27.5 4.35 26.15 3 24.5 3ZM14 2.625C14.615 2.625 15.125 3.135 15.125 3.75C15.125 4.365 14.615 4.875 14 4.875C13.385 4.875 12.875 4.365 12.875 3.75C12.875 3.135 13.385 2.625 14 2.625ZM24.5 27H3.5V6H24.5V27Z" fill="#C66B02"/>
</svg>
