<svg width="26" height="30" viewBox="0 0 26 30" fill="none" xmlns="http://www.w3.org/2000/svg">
<path d="M3.375 0C2.47989 0 1.62145 0.355579 0.988515 0.988515C0.35558 1.62145 0 2.47989 0 3.375V26.625C0 27.5201 0.35558 28.3785 0.988515 29.0115C1.62145 29.6444 2.47989 30 3.375 30H14.625C15.5147 30 16.3684 29.6488 17.0004 29.0226C17.6325 28.3965 17.9917 27.5461 18 26.6565V24.3765C18 24.0781 17.8815 23.792 17.6705 23.581C17.4595 23.37 17.1734 23.2515 16.875 23.2515C16.194 23.2515 15.765 23.067 15.4695 22.8285C15.1575 22.578 14.8995 22.191 14.7045 21.645C14.295 20.5125 14.25 19.02 14.25 17.625C14.25 17.3399 14.1417 17.0653 13.947 16.857L13.701 16.5915C13.6201 16.5011 13.535 16.4145 13.446 16.332C13.335 16.227 12.996 15.9045 11.67 14.58C10.968 13.8765 10.578 13.2825 10.4505 12.828C10.3994 12.6705 10.3916 12.5021 10.428 12.3405C10.484 12.1541 10.5898 11.9866 10.734 11.856C10.8641 11.7119 11.0311 11.6061 11.217 11.55C11.3782 11.5141 11.5461 11.5224 11.703 11.574C12.1575 11.7015 12.7515 12.093 13.455 12.7965C14.265 13.6065 15.033 14.3655 15.7215 15.0465C16.8615 16.1745 17.7825 17.0865 18.3015 17.6415C18.505 17.8599 18.7869 17.9885 19.0852 17.9991C19.3835 18.0096 19.6738 17.9012 19.8923 17.6978C20.1107 17.4943 20.2393 17.2123 20.2498 16.914C20.2604 16.6157 20.152 16.3254 19.9485 16.107C19.3095 15.4392 18.6594 14.7821 17.9985 14.136V9.09L22.2615 13.353C22.8945 13.986 23.25 14.844 23.25 15.738V28.875C23.25 29.1734 23.3685 29.4595 23.5795 29.6705C23.7905 29.8815 24.0766 30 24.375 30C24.6734 30 24.9595 29.8815 25.1705 29.6705C25.3815 29.4595 25.5 29.1734 25.5 28.875V15.7395C25.5001 15.0008 25.3548 14.2692 25.0722 13.5867C24.7896 12.9041 24.3753 12.2839 23.853 11.7615L18 5.9085V3.3735C17.9996 2.47865 17.6438 1.6206 17.011 0.987984C16.3781 0.355373 15.5198 -8.83798e-08 14.625 0H3.375ZM12.588 22.41C12.732 22.812 12.9195 23.211 13.1625 23.583C12.5896 23.8585 12.1061 24.2901 11.7678 24.8283C11.4294 25.3665 11.2499 25.9893 11.25 26.625V27.75H6.75V26.625C6.75 25.7299 6.39442 24.8715 5.76149 24.2385C5.12855 23.6056 4.27011 23.25 3.375 23.25H2.25V6.75H3.375C4.27011 6.75 5.12855 6.39442 5.76149 5.76149C6.39442 5.12855 6.75 4.27011 6.75 3.375V2.25H11.25V3.375C11.25 4.27011 11.6056 5.12855 12.2385 5.76149C12.8715 6.39442 13.7299 6.75 14.625 6.75H15.75V11.907L15.045 11.205C14.25 10.4085 13.323 9.693 12.315 9.408C11.7762 9.24843 11.2045 9.23548 10.659 9.3705C10.3206 9.45818 9.99949 9.60274 9.7095 9.798C8.86143 9.68232 7.99795 9.77575 7.19425 10.0701C6.39055 10.3645 5.67102 10.851 5.09832 11.487C4.52562 12.1231 4.11713 12.8896 3.90843 13.7197C3.69972 14.5498 3.69714 15.4183 3.90089 16.2496C4.10464 17.0809 4.50856 17.8498 5.07745 18.4893C5.64635 19.1288 6.36297 19.6195 7.1649 19.9187C7.96683 20.2179 8.82974 20.3164 9.67848 20.2058C10.5272 20.0952 11.336 19.7787 12.0345 19.284C12.0915 20.31 12.231 21.4245 12.588 22.41ZM6 15C5.99977 14.3467 6.21281 13.7112 6.60673 13.19C7.00065 12.6689 7.55393 12.2905 8.1825 12.1125C8.12465 12.5563 8.15938 13.0073 8.2845 13.437C8.5695 14.4465 9.282 15.3735 10.08 16.1715L11.0775 17.1645C10.6532 17.5718 10.1186 17.8454 9.54002 17.9512C8.96148 18.0571 8.36459 17.9906 7.82356 17.76C7.28253 17.5293 6.82122 17.1447 6.497 16.654C6.17278 16.1633 5.99995 15.5881 6 15ZM2.25 3.375C2.25 3.07663 2.36853 2.79048 2.5795 2.5795C2.79048 2.36853 3.07663 2.25 3.375 2.25H4.5V3.375C4.5 3.67337 4.38147 3.95952 4.1705 4.1705C3.95952 4.38147 3.67337 4.5 3.375 4.5H2.25V3.375ZM13.5 2.25H14.625C14.9234 2.25 15.2095 2.36853 15.4205 2.5795C15.6315 2.79048 15.75 3.07663 15.75 3.375V4.5H14.625C14.3266 4.5 14.0405 4.38147 13.8295 4.1705C13.6185 3.95952 13.5 3.67337 13.5 3.375V2.25ZM15.75 25.5V26.625C15.75 26.9234 15.6315 27.2095 15.4205 27.4205C15.2095 27.6315 14.9234 27.75 14.625 27.75H13.5V26.625C13.5 26.3266 13.6185 26.0405 13.8295 25.8295C14.0405 25.6185 14.3266 25.5 14.625 25.5H15.75ZM4.5 27.75H3.375C3.07663 27.75 2.79048 27.6315 2.5795 27.4205C2.36853 27.2095 2.25 26.9234 2.25 26.625V25.5H3.375C3.67337 25.5 3.95952 25.6185 4.1705 25.8295C4.38147 26.0405 4.5 26.3266 4.5 26.625V27.75Z" fill="#088B94"/>
</svg>
